<svg version="1.1" xmlns="http://www.w3.org/2000/svg"  width="300" height="600" viewBox="0 0 300 600" >
	<title>DNS server and regular server</title>
<g  style="mix-blend-mode: source-over;" transform="matrix(4.27631011761808,0,0,3.280432599410106,34,9.112155426878932)">
	<g  style="">
		<path d="M23.56 43.15v8.13H0v2h25.56v-6.13h3v6.13h25.56v-2H30.56v-8.13zM0 56.27v2h54.13v-2z"  style="fill: #fff;"/>
		<g  style="stroke: #fff;">
			<path d="M27.09 1.5c-10.22 0-18.57 3-19.16 6.84-.79 1.4 0 8 0 8.94a2.82 2.82 0 0 0 0 .34c-.79 1.4 0 8 0 8.94a2.82 2.82 0 0 0 0 .34v.1c-.79 1.4 0 7.93 0 8.91 0 4 8.58 7.31 19.19 7.31s19.22-3.29 19.22-7.31c0-.67.26-5.94 0-8.25a2.08 2.08 0 0 0 0-.25 3 3 0 0 0-.06-.41 2.81 2.81 0 0 0 .06-.41c0-.67.26-5.94 0-8.25a2.08 2.08 0 0 0 0-.25 3 3 0 0 0-.06-.41 2.81 2.81 0 0 0 .06-.41c0-.67.26-5.94 0-8.25a2.08 2.08 0 0 0 0-.25c0-4-8.61-7.28-19.22-7.28z"  style="fill: orange; stroke-width: 3;"/>
			<path d="M46.29 8.84c0 4-8.6 7.29-19.2 7.29s-19.2-3.26-19.2-7.29M46.59 18.84c0 4-8.6 7.29-19.2 7.29s-19.2-3.26-19.2-7.29M46.29 28.84c0 4-8.6 7.29-19.2 7.29s-19.2-3.26-19.2-7.29"  style="fill: none; stroke-width: 2;"/>
		</g>
	</g>
</g>
<g  style="mix-blend-mode: source-over;" transform="matrix(4.721311475409836,-1.7929855657793963e-14,1.7306815985206857e-14,4.557251908396958,9.91803278688522,277.1641221374046)">
	<g  style="">
		<path d="M1.5 32.46l2-9c0-1.07 1.5-1.92 3.36-1.92h45.5c1.86 0 3.36.86 3.36 1.92l2 9c0 1.07-1.5 1.92-3.36 1.92H4.86c-1.86 0-3.36-.86-3.36-1.92z"  style="fill: orange; stroke: #fff; stroke-width: 3;"/>
		<path d="M1.5 44.15V33.63c0-1.24 1.5-2.24 3.36-2.24h49.5c1.86 0 3.36 1 3.36 2.24v10.52c0 1.24-1.5 2.24-3.36 2.24H4.86c-1.86 0-3.36-1-3.36-2.24z"  style="fill: orange; stroke: #fff; stroke-width: 3;"/>
		<path d="M53 36.17a1.49 1.49 0 1 1-1.49-1.43A1.46 1.46 0 0 1 53 36.17zM4.6 35c-.08 0-.15.13-.18.31a1.11 1.11 0 0 0 0 .19v2.91c0 .28.09.5.19.5h12.51c.11 0 .19-.22.19-.5v-2.9a1.29 1.29 0 0 0 0-.22c0-.18-.1-.31-.18-.31H4.6zM19.4 34.79c-.08 0-.15.13-.18.31a1.11 1.11 0 0 0 0 .19v2.91c0 .28.09.5.19.5h12.51c.11 0 .19-.22.19-.5v-2.88a1.29 1.29 0 0 0 0-.22c0-.18-.1-.31-.18-.31H19.4zM48.11 36.11a1.49 1.49 0 1 1-1.49-1.43 1.46 1.46 0 0 1 1.49 1.43zM26.1 46.66v8.13H2.54v2H28.1v-6.13h3v6.13h25.56v-2H33.1v-8.13zM2.54 59.78v2h54.12v-2z"  style="fill: #fff;"/>
		<path d="M1.5 12.46l2-9C3.5 2.36 5 1.5 6.86 1.5h45.5c1.86 0 3.36.86 3.36 1.92l2 9c0 1.07-1.5 1.92-3.36 1.92H4.86c-1.86.04-3.36-.82-3.36-1.88z"  style="fill: orange; stroke: #fff; stroke-width: 3;"/>
		<path d="M1.5 24.15V13.63c0-1.24 1.5-2.24 3.36-2.24h49.5c1.86 0 3.36 1 3.36 2.24v10.52c0 1.24-1.5 2.24-3.36 2.24H4.86c-1.86 0-3.36-1-3.36-2.24z"  style="fill: orange; stroke: #fff; stroke-width: 3;"/>
		<path d="M53 16.17a1.49 1.49 0 1 1-1.49-1.43A1.46 1.46 0 0 1 53 16.17zM4.6 15c-.08 0-.15.13-.18.31a1.11 1.11 0 0 0 0 .19v2.91c0 .28.09.5.19.5h12.51c.11 0 .19-.22.19-.5v-2.9a1.29 1.29 0 0 0 0-.22c0-.18-.1-.31-.18-.31H4.6zM19.4 14.79c-.08 0-.15.13-.18.31a1.11 1.11 0 0 0 0 .19v2.91c0 .28.09.5.19.5h12.51c.11 0 .19-.22.19-.5v-2.88a1.29 1.29 0 0 0 0-.22c0-.18-.1-.31-.18-.31H19.4zM48.11 16.11a1.49 1.49 0 1 1-1.49-1.43 1.46 1.46 0 0 1 1.49 1.43z"  style="fill: #fff;"/>
	</g>
</g>
</svg>