<svg xmlns="http://www.w3.org/2000/svg" width="640" height="480">
	<title>Cell tower and cell phone</title>
	<path d="M0 0h640v480H0z" fill="transparent" vector-effect="non-scaling-stroke"/>
<g>
	<path d="M68.756 155a4.176 4.176 0 0 0-4.185 4.185v12.554H35.277A6.264 6.264 0 0 0 29 178.017v85.79c0 3.477 2.8 6.277 6.277 6.277h37.664c3.478 0 6.277-2.8 6.277-6.277v-85.79c0-3.478-2.8-6.278-6.277-6.278v-12.554A4.176 4.176 0 0 0 68.756 155zm-32.432 23.017h35.571c1.16 0 2.092.933 2.092 2.092v37.664c0 1.16-.933 2.093-2.092 2.093H36.324a2.088 2.088 0 0 1-2.093-2.093V180.11c0-1.159.933-2.092 2.093-2.092zm0 46.033H42.6c1.16 0 2.092.934 2.092 2.093v6.277c0 1.16-.933 2.093-2.092 2.093h-6.277a2.088 2.088 0 0 1-2.093-2.093v-6.277c0-1.16.933-2.093 2.093-2.093zm14.647 0h6.277c1.16 0 2.092.934 2.092 2.093v6.277c0 1.16-.933 2.093-2.092 2.093H50.97a2.088 2.088 0 0 1-2.093-2.093v-6.277c0-1.16.933-2.093 2.093-2.093zm14.647 0h6.277c1.16 0 2.092.934 2.092 2.093v6.277c0 1.16-.933 2.093-2.092 2.093h-6.277a2.088 2.088 0 0 1-2.093-2.093v-6.277c0-1.16.933-2.093 2.093-2.093zm-29.294 14.647H42.6c1.16 0 2.092.934 2.092 2.093v6.277c0 1.16-.933 2.093-2.092 2.093h-6.277a2.088 2.088 0 0 1-2.093-2.093v-6.277c0-1.16.933-2.093 2.093-2.093zm14.647 0h6.277c1.16 0 2.092.934 2.092 2.093v6.277c0 1.16-.933 2.093-2.092 2.093H50.97a2.088 2.088 0 0 1-2.093-2.093v-6.277c0-1.16.933-2.093 2.093-2.093zm14.647 0h6.277c1.16 0 2.092.934 2.092 2.093v6.277c0 1.16-.933 2.093-2.092 2.093h-6.277a2.088 2.088 0 0 1-2.093-2.093v-6.277c0-1.16.933-2.093 2.093-2.093zm-29.294 14.648H42.6c1.16 0 2.092.933 2.092 2.092v6.277c0 1.16-.933 2.093-2.092 2.093h-6.277a2.088 2.088 0 0 1-2.093-2.093v-6.277c0-1.16.933-2.092 2.093-2.092zm14.647 0h6.277c1.16 0 2.092.933 2.092 2.092v6.277c0 1.16-.933 2.093-2.092 2.093H50.97a2.088 2.088 0 0 1-2.093-2.093v-6.277c0-1.16.933-2.092 2.093-2.092zm14.647 0h6.277c1.16 0 2.092.933 2.092 2.092v6.277c0 1.16-.933 2.093-2.092 2.093h-6.277a2.088 2.088 0 0 1-2.093-2.093v-6.277c0-1.16.933-2.092 2.093-2.092z" stroke="#ffffff" fill="#ffffff"/>
</g>
<g>
	<path d="M299.4-.496c-1.272-.01-2.544-.006-3.823.015-81.88 1.294-148.25 60.85-148.25 133.02 0 64.554 53.1 117.33 122.9 126.83l1.205-6.857c-66.072-9.046-116.31-59.03-116.31-120.15 0-68.38 62.88-124.8 140.46-126.03 77.578-1.227 140.47 53.216 140.47 121.6 0 57.3-44.157 106.19-104.12 121.25h-.015c-.525.132-1.05.275-1.577.401l-37.532-117.73-.074.402 39.525 123.99c.603-.145 1.2-.295 1.8-.446 63.22-15.937 109.78-67.51 109.78-127.95 0-71.044-64.332-127.83-144.44-128.35z"  fill="#ffffff" stroke="#595e62" opacity=".732" stroke-width=".123" stroke-linecap="square" stroke-linejoin="bevel" transform="matrix(.71789 0 0 .68839 292.235 50.345)"/>
	<path d="M295.58 36.992c-58.229.92-105.43 43.27-105.43 94.594 0 45.907 37.763 83.444 87.403 90.197l.857-4.881c-46.987-6.433-82.718-41.974-82.718-85.44 0-48.627 44.714-88.748 99.883-89.62 55.17-.872 99.892 37.836 99.892 86.463 0 41.108-31.956 76.135-75.17 86.513L293.605 131.1l-.055.283 28.114 88.181c45.611-10.954 79.345-47.923 79.345-91.31 0-51.324-47.206-92.182-105.43-91.262z" fill="#ffffff" stroke="#595e62" opacity=".732" stroke-width=".088" stroke-linecap="square" stroke-linejoin="bevel" transform="matrix(.71789 0 0 .68839 292.235 50.345)"/>
	<path d="M295.58 56.561c-45.877.725-83.062 34.092-83.062 74.528 0 36.169 29.753 65.744 68.863 71.065l.676-3.846c-37.02-5.068-65.172-33.07-65.172-67.316 0-38.312 35.229-69.923 78.696-70.61 43.467-.687 78.703 29.81 78.703 68.122 0 32.388-25.177 59.985-59.225 68.162l-21.03-65.96-.043.224 22.15 69.476c35.936-8.63 62.514-37.757 62.514-71.942 0-40.437-37.192-72.628-83.07-71.903z" fill="#ffffff" stroke="#595e62" opacity=".732" stroke-width=".069" stroke-linecap="square" stroke-linejoin="bevel" transform="matrix(.71789 0 0 .68839 292.235 50.345)"/>
	<path d="M296.99 81.53c-.468-.004-.943.008-1.413.015-30.11.476-54.505 22.372-54.505 48.912 0 23.738 19.524 43.143 45.193 46.636l.446-2.514c-24.297-3.326-42.783-21.705-42.783-44.18 0-25.146 23.122-45.903 51.65-46.354 28.527-.45 51.663 19.572 51.663 44.717 0 21.257-16.525 39.365-38.87 44.732l-13.806-43.289-.03.149 14.534 45.594c23.585-5.664 41.028-24.781 41.028-47.216 0-26.125-23.647-47.009-53.107-47.201zm-3.66 48.019l39.437 122.4-39.436-122.4zm0 4.076l39.437 122.41-39.436-122.41z"  fill="#ffffff" stroke="#595e62" opacity=".732" stroke-width=".045" stroke-linecap="square" stroke-linejoin="bevel" transform="matrix(.71789 0 0 .68839 292.235 50.345)"/>
	<path d="M250.98 471.98l49.466-335.9 73.465 329.83-109.66-59.291 85.153-43.019-72.829-40.489 59.06-39.887-49.137-33.688 30.414-33.973" fill="none" stroke="#ffffff" stroke-width="8.043" transform="matrix(.71789 0 0 .68839 292.235 50.345)"/>
	<path d="M520.387 143.27a14.158 13.108 0 1 1-28.315 0 14.158 13.108 0 1 1 28.315 0z" fill="#ffffff"/>
</g>
</svg>