<svg version="1.1" xmlns="http://www.w3.org/2000/svg" xmlns:xlink="http://www.w3.org/1999/xlink" width="300" height="300" viewBox="0 0 300 300">
	<title>DNS server</title>

<g  style="mix-blend-mode: source-over;" transform="matrix(4.5,0,0,4.26,32,43.65)">
	<g>
		<path d="M23.56 43.15v8.13H0v2h25.56v-6.13h3v6.13h25.56v-2H30.56v-8.13zM0 56.27v2h54.13v-2z"  style="fill: #fff;"/>
		<g  style="stroke: #FFF;">
			<path d="M27.09 1.5c-10.22 0-18.57 3-19.16 6.84-.79 1.4 0 8 0 8.94a2.82 2.82 0 0 0 0 .34c-.79 1.4 0 8 0 8.94a2.82 2.82 0 0 0 0 .34v.1c-.79 1.4 0 7.93 0 8.91 0 4 8.58 7.31 19.19 7.31s19.22-3.29 19.22-7.31c0-.67.26-5.94 0-8.25a2.08 2.08 0 0 0 0-.25 3 3 0 0 0-.06-.41 2.81 2.81 0 0 0 .06-.41c0-.67.26-5.94 0-8.25a2.08 2.08 0 0 0 0-.25 3 3 0 0 0-.06-.41 2.81 2.81 0 0 0 .06-.41c0-.67.26-5.94 0-8.25a2.08 2.08 0 0 0 0-.25c0-4-8.61-7.28-19.22-7.28z"  style="fill: orange; stroke-width: 3;"/>
			<path d="M46.29 8.84c0 4-8.6 7.29-19.2 7.29s-19.2-3.26-19.2-7.29M46.59 18.84c0 4-8.6 7.29-19.2 7.29s-19.2-3.26-19.2-7.29M46.29 28.84c0 4-8.6 7.29-19.2 7.29s-19.2-3.26-19.2-7.29"  style="fill: none; stroke-width: 2;"/>
		</g>
	</g>
</g>
</svg>