<svg xmlns="http://www.w3.org/2000/svg" xmlns:xlink="http://www.w3.org/1999/xlink" width="640" height="680">
	<title>DOM Tree</title>
	<style>text {
		opacity:1;
		stroke:orange;
		text-transform:uppercase;
		font-size:20px
	}</style>
	<defs>
	<path d="M140 132l75-38" fill-opacity="0" stroke="#fff" id="b1oo3Sc4me"/>
	<path d="M366 132l-50-38" id="a5TAWfcyIw"/>
	<path d="M71 446l-4-264" id="bf98XDLSO"/>
	<path d="M113 442H70" id="g2yvSwGFWh"/>
	<path d="M113 374H70" id="f3nHLD3Fa"/>
	<path d="M113 310l-43 .5" id="b5wE2pc2O"/>
	<path d="M113 244H70" id="gnnheqLqw"/>
	<path d="M433 374h-34v-40" id="bidZTKqAz"/>
	<path d="M182 46h174v49H182V46z" id="ajFvX9qd3"/>
	<path d="M433 562.7h-34V468" id="bk5cM0za"/>
	<path d="M344 446h-20" id="d2CgEvHTI"/>
	<path d="M344 314l-20-1" id="dgVFTz5K"/>
	<path d="M344 244h-20" id="b8tex7Sdl"/>
	<path d="M344 623h-20V185" id="aakYba2j"/>

	<path d="M344 285h176v49H344v-49z" id="aEapgGQ6o"/>
	<path d="M53 132h174v50H53v-50z" id="b8L4ghwkWd"/>
	<path d="M319 132h174v50H319v-50z" id="c6cAb86x2Z"/>
	<path d="M113 219h175v49H114l-1-49z" id="c1vCfxhrtY"/>
	<path d="M113 285h174v49H113v-49z" id="b4BMhvswEW"/>
	<path d="M113 354h174v49H113v-49z" id="aiQZvu0nA"/>
	<path d="M113 417h175v49H114l-1-49z" id="e3Z8WdelU9"/>
	<path d="M344 219h176v49H345v-49z" id="h2h63vixMX"/>
	<path d="M344 417h174v49H344v-49z" id="a4Lg6bC9RC"/>
	<path d="M344 612h174v49H344v-49z" id="b4aYsbS94F"/>
	<path d="M424 477h174v49H424v-49z" id="apnyFohGg"/>
	<path d="M424 537h174v49H424v-49z" id="apny"/>
	<path d="M424 354h174v49H424v-49z" id="dJjwsM2Y1"/>

	<text id="a222qMfbC9" x="235" y="75">html</text>
	<text id="eX8ySe6e1"  style="stroke: white;" x="95" y="165">Head</text>
	<text id="g4tC3sH5MX" x="150" y="250">Meta</text>
	<text id="faMokt4ml" x="150" y="318">Title</text>
	<text id="aiCj7iWXy" x="150" y="385">link</text>
	<text id="k16GkUfREo" x="150" y="450">script</text>
	<text id="a4a9lmYXdA"  style="stroke: white;" x="370" y="165">body</text>
	<text id="c4tZrj9IIe" x="370" y="250">h1</text>
	<text id="a39PTXvYKb" x="370" y="318">p</text>
	<text id="ckAYmpAGl" x="455" y="385">a</text>
	<text id="b6PSiPn6jP" x="379" y="450">figure</text>
	<text id="e2AxLYL0n" x="455" y="510">img</text>
	<text id="e2A" x="455" y="570">caption</text>
	<text id="j2jIMjtP9o" x="370" y="640">script</text>
	</defs>

	<use xlink:href="#bfw2jxK4o" fill="#1cd605" id="b3Huy3yL6l"/>
	<use xlink:href="#b1q9DY3l82" fill="#a4ce11" id="adLI2y8ID"/>
	<use xlink:href="#a3MoLVTf3U" fill="#c16af6" id="f1V7dTYCCc"/>
	<use xlink:href="#b1oo3Sc4me" fill-opacity="0" stroke="#fff"/>
	<use xlink:href="#a5TAWfcyIw" fill-opacity="0" stroke="#fff"/>
	<use xlink:href="#bf98XDLSO" fill-opacity="0" stroke="#fff"/>
	<use xlink:href="#aEapgGQ6o" fill="white"/>
	<use xlink:href="#d2CgEvHTI" fill-opacity="0" stroke="#fff"/>
	<use xlink:href="#dgVFTz5K" fill-opacity="0" stroke="#fff"/>
	<use xlink:href="#g2yvSwGFWh" fill-opacity="0" stroke="#fff"/>
	<use xlink:href="#f3nHLD3Fa" fill-opacity="0" stroke="#fff"/>
	<use xlink:href="#b5wE2pc2O" fill-opacity="0" stroke="#fff"/>
	<use xlink:href="#gnnheqLqw" fill-opacity="0" stroke="#fff"/>
	<use xlink:href="#b8tex7Sdl" fill-opacity="0" stroke="#fff"/>
	<use xlink:href="#b8L4ghwkWd" fill="orange"/>
	<use xlink:href="#bidZTKqAz" fill-opacity="0" stroke="#fff"/>
	<use xlink:href="#ajFvX9qd3" fill="white"/>
	<use xlink:href="#bk5cM0za" fill-opacity="0" stroke="#fff"/>
	<use xlink:href="#c6cAb86x2Z" fill="orange"/>
	<use xlink:href="#c1vCfxhrtY" fill="white"/>
	<use xlink:href="#b4BMhvswEW" fill="white"/>
	<use xlink:href="#aiQZvu0nA" fill="white"/>
	<use xlink:href="#aakYba2j" fill-opacity="0" stroke="#fff"/>
	<use xlink:href="#e3Z8WdelU9" fill="white"/>
	<use xlink:href="#h2h63vixMX" fill="white"/>
	<use xlink:href="#dJjwsM2Y1" fill="white"/>
	<use xlink:href="#a4Lg6bC9RC" fill="white"/>
	<use xlink:href="#apnyFohGg" fill="white"/>
	<use xlink:href="#apny" fill="white"/>
	<use xlink:href="#b4aYsbS94F" fill="white"/>
	<use xlink:href="#g4tC3sH5MX" fill="orange"/>
	<use xlink:href="#faMokt4ml" fill="orange"/>
	<use xlink:href="#aiCj7iWXy" fill="orange"/>
	<use xlink:href="#k16GkUfREo" fill="orange"/>
	<use xlink:href="#eX8ySe6e1" fill="white"/>
	<use xlink:href="#a4a9lmYXdA" fill="white"/>
	<use xlink:href="#a222qMfbC9" fill="white" />
	<use xlink:href="#c4tZrj9IIe" fill="orange"/>
	<use xlink:href="#a39PTXvYKb" fill="orange"/>
	<use xlink:href="#ckAYmpAGl" fill="orange"/>
	<use xlink:href="#b6PSiPn6jP" fill="orange"/>
	<use xlink:href="#e2AxLYL0n" fill="orange"/>
	<use xlink:href="#e2A" fill="orange"/>
	<use xlink:href="#j2jIMjtP9o" fill="orange"/>
	<path d="M424 505H400" stroke="#fff"/>
	</svg>