<svg version="1.1" xmlns="http://www.w3.org/2000/svg" xmlns:xlink="http://www.w3.org/1999/xlink"  width="300" height="300" viewBox="0 0 300 300">
<path  style="fill: transparent; mix-blend-mode: source-over; fill-opacity: 1; fill-rule: nonzero; vector-effect: non-scaling-stroke;" d="M0 0 L300 0 300 300 0 300 z"/>
<g  style="mix-blend-mode: source-over;" transform="matrix(4.981398344829538,0,0,4.637780719519907,2.5279024827556933,5.043328920720139)">
	<g>
		<path d="M1.5 32.46l2-9c0-1.07 1.5-1.92 3.36-1.92h45.5c1.86 0 3.36.86 3.36 1.92l2 9c0 1.07-1.5 1.92-3.36 1.92H4.86c-1.86 0-3.36-.86-3.36-1.92z"  style="fill: #fff; stroke: #555753; stroke-width: 3;"/>
		<path d="M1.5 44.15V33.63c0-1.24 1.5-2.24 3.36-2.24h49.5c1.86 0 3.36 1 3.36 2.24v10.52c0 1.24-1.5 2.24-3.36 2.24H4.86c-1.86 0-3.36-1-3.36-2.24z"  style="fill: #fff; stroke: #555753; stroke-width: 3;"/>
		<path d="M53 36.17a1.49 1.49 0 1 1-1.49-1.43A1.46 1.46 0 0 1 53 36.17zM4.6 35c-.08 0-.15.13-.18.31a1.11 1.11 0 0 0 0 .19v2.91c0 .28.09.5.19.5h12.51c.11 0 .19-.22.19-.5v-2.9a1.29 1.29 0 0 0 0-.22c0-.18-.1-.31-.18-.31H4.6zM19.4 34.79c-.08 0-.15.13-.18.31a1.11 1.11 0 0 0 0 .19v2.91c0 .28.09.5.19.5h12.51c.11 0 .19-.22.19-.5v-2.88a1.29 1.29 0 0 0 0-.22c0-.18-.1-.31-.18-.31H19.4zM48.11 36.11a1.49 1.49 0 1 1-1.49-1.43 1.46 1.46 0 0 1 1.49 1.43zM26.1 46.66v8.13H2.54v2H28.1v-6.13h3v6.13h25.56v-2H33.1v-8.13zM2.54 59.78v2h54.12v-2z"  style="fill: #555753;"/>
		<path d="M1.5 12.46l2-9C3.5 2.36 5 1.5 6.86 1.5h45.5c1.86 0 3.36.86 3.36 1.92l2 9c0 1.07-1.5 1.92-3.36 1.92H4.86c-1.86.04-3.36-.82-3.36-1.88z"  style="fill: #fff; stroke: #555753; stroke-width: 3;"/>
		<path d="M1.5 24.15V13.63c0-1.24 1.5-2.24 3.36-2.24h49.5c1.86 0 3.36 1 3.36 2.24v10.52c0 1.24-1.5 2.24-3.36 2.24H4.86c-1.86 0-3.36-1-3.36-2.24z"  style="fill: #fff; stroke: #555753; stroke-width: 3;"/>
		<path d="M53 16.17a1.49 1.49 0 1 1-1.49-1.43A1.46 1.46 0 0 1 53 16.17zM4.6 15c-.08 0-.15.13-.18.31a1.11 1.11 0 0 0 0 .19v2.91c0 .28.09.5.19.5h12.51c.11 0 .19-.22.19-.5v-2.9a1.29 1.29 0 0 0 0-.22c0-.18-.1-.31-.18-.31H4.6zM19.4 14.79c-.08 0-.15.13-.18.31a1.11 1.11 0 0 0 0 .19v2.91c0 .28.09.5.19.5h12.51c.11 0 .19-.22.19-.5v-2.88a1.29 1.29 0 0 0 0-.22c0-.18-.1-.31-.18-.31H19.4zM48.11 16.11a1.49 1.49 0 1 1-1.49-1.43 1.46 1.46 0 0 1 1.49 1.43z"  style="fill: #555753;"/>
	</g>
</g>
</svg>