<svg xmlns="http://www.w3.org/2000/svg" viewBox="0 0 512 512">
	<title>Hour glass</title>
  <path d="M382.456 134.029V8.258h-252.91v125.771c0 58.255 39.394 107.3 92.992 121.971-53.599 14.671-92.992 63.716-92.992 121.971v125.771h252.909V377.971c0-58.255-39.394-107.3-92.992-121.971 53.598-14.671 92.993-63.717 92.993-121.971z" fill="#fff3"/>
  <g fill="#fff">
    <path d="M393.466 512H118.535c-4.561 0-8.258-3.696-8.258-8.258s3.697-8.258 8.258-8.258h274.931c4.561 0 8.258 3.696 8.258 8.258S398.027 512 393.466 512zM393.466 16.516H118.535c-4.561 0-8.258-3.696-8.258-8.258S113.974 0 118.535 0h274.931c4.561 0 8.258 3.696 8.258 8.258s-3.697 8.258-8.258 8.258z"/>
  </g>
  <path d="M264.259 335.581V227.232c6.785-.628 12.05-1.937 16.483-3.093 31.425-8.191 55.375-32.565 64.576-62.651l-178.634-.002c9.201 30.087 33.15 54.461 64.576 62.653 4.433 1.155 9.698 2.464 16.483 3.093v108.349c-47.724 4.184-85.164 44.228-85.164 93.039v42.09h186.845v-42.09c-.001-48.811-37.44-88.856-85.165-93.039z" fill="#fffa"/>
</svg>
