<svg version="1.1" xmlns="http://www.w3.org/2000/svg" xmlns:xlink="http://www.w3.org/1999/xlink"  width="300" height="300" viewBox="0 0 300 300">
	<title>Web document</title>
<path  style="fill: transparent; mix-blend-mode: source-over; fill-opacity: 1; fill-rule: nonzero; vector-effect: non-scaling-stroke;" d="M0 0 L300 0 300 300 0 300 z"/>
<g  style="mix-blend-mode: source-over;" transform="matrix(1.4277992475534729,0,0,1.376465297297274,3.5742814698934247,-15.848722506927665)">
	<text  x="451.998" y="764.007" transform="matrix(1,0,0,1,-249.6,-302.94)"  style="font-size: 40; font-family: Sans; font-renderer: native; line-height: 125;">	</text>
	<path d="M567.88-922.36c-.674 0-1.219.015-1.219.031v585.473c0 .04.545.093 1.219.093h497.56c.674 0 1.219-.053 1.219-.093V-922.33c0-.016-.545-.031-1.219-.031H567.88z" transform="matrix(0.37271,0,0,0.37337,-199.696,355.896)"  style="fill: #0003; filter: a;"/>
	<path d="M13.979 44.479h175.397c.237 0 .429.011.429.025v148.607c0 .014-.192.026-.43.026H13.98c-.237 0-.429-.012-.429-.026V44.504c0-.014.192-.025.429-.025z"  style="fill: #fff3;"/>
	<path d="M13.979 12.362h175.397c.237 0 .429.003.429.006v34.725c0 .004-.192.006-.43.006H13.98c-.237 0-.429-.003-.429-.006V12.368c0-.004.192-.006.429-.006zM13.661 193.142h175.397c.238 0 .429.003.429.006v34.725c0 .004-.191.006-.429.006H13.661c-.237 0-.428-.002-.428-.006v-34.725c0-.003.19-.006.428-.006z"  style="fill: #fff;"/>
	<g style="fill: #fff3;">
		<path d="M44.557 218.262v-12.807c0-.589-.185-1.004-.556-1.247-.35-.242-1.02-.407-2.008-.493v-.65h9.424c3.563 0 6.364.762 8.403 2.286 2.04 1.524 3.06 3.628 3.06 6.313 0 2.684-1.02 4.849-3.06 6.494-2.039 1.645-4.727 2.468-8.064 2.468h-9.763v-.65c.886-.017 1.534-.164 1.946-.441.412-.277.618-.702.618-1.273m12.946-6.209c0-1.524-.185-2.84-.556-3.948-.37-1.109-.865-1.948-1.483-2.52-.618-.571-1.267-.987-1.946-1.247-.66-.26-1.37-.39-2.132-.39-1.216 0-1.823.304-1.823.91v13.352c0 .589.123.987.37 1.195.248.208.721.312 1.422.312 4.099 0 6.148-2.555 6.149-7.664M71.641 208.339c1.998 0 3.656.606 4.974 1.818 1.318 1.195 1.978 2.702 1.978 4.52 0 1.801-.66 3.308-1.978 4.52-1.318 1.195-2.976 1.793-4.974 1.793-2.019 0-3.687-.598-5.005-1.793-1.319-1.212-1.978-2.745-1.978-4.598 0-1.766.67-3.247 2.008-4.442 1.36-1.212 3.018-1.818 4.975-1.818m.03.805c-.947 0-1.596.416-1.946 1.247-.35.831-.525 2.39-.525 4.676 0 1.905.175 3.239.525 4 .37.745 1.01 1.118 1.916 1.118s1.534-.39 1.884-1.17c.35-.796.526-2.19.526-4.181 0-2.13-.175-3.611-.526-4.443-.35-.83-.968-1.246-1.853-1.246M92.066 217.793l.556.468c-.906.97-1.823 1.67-2.75 2.104-.906.416-1.956.623-3.151.623-1.916 0-3.502-.58-4.758-1.74-1.236-1.16-1.854-2.633-1.854-4.416 0-1.87.69-3.42 2.07-4.65 1.38-1.23 3.12-1.845 5.221-1.845 1.36 0 2.493.277 3.4.832.926.536 1.39 1.212 1.39 2.026 0 .502-.186.9-.557 1.195-.37.294-.885.441-1.545.441-1.132 0-1.71-.623-1.73-1.87 0-.727-.051-1.169-.154-1.325-.206-.329-.587-.493-1.143-.493-.804 0-1.442.39-1.916 1.169-.453.762-.68 1.81-.68 3.143 0 1.766.392 3.178 1.174 4.234.804 1.04 1.875 1.559 3.214 1.559.638 0 1.184-.104 1.637-.312.474-.225 1-.606 1.576-1.143M102.727 220.964v-1.689c-.907.659-1.68 1.109-2.318 1.351-.638.243-1.36.364-2.162.364-1.278 0-2.287-.32-3.028-.961-.721-.64-1.082-1.533-1.082-2.676v-6.546c0-.537-.092-.9-.278-1.091-.185-.19-.597-.338-1.236-.442v-.623h5.809v8.806c0 .658.123 1.134.37 1.429.268.277.721.415 1.36.415.783 0 1.627-.38 2.534-1.143v-7.351c0-.555-.134-.936-.402-1.143-.247-.208-.752-.338-1.514-.39v-.624h6.21v9.352c0 .555.113.944.34 1.17.247.207.71.32 1.39.337v.598l-1.915.181c-1.71.156-3.07.381-4.079.676M118.108 210.078c-.556 0-1.133.199-1.73.597-.577.399-.865.702-.865.91v6.936c0 .502.103.857.309 1.065.206.207.576.346 1.112.415v.624h-7.416V220c.68-.104 1.133-.25 1.36-.441.227-.208.34-.58.34-1.117v-7.638c0-.537-.113-.91-.34-1.117-.227-.208-.68-.346-1.36-.416v-.623h5.902v1.948c1.133-1.506 2.647-2.26 4.542-2.26.968 0 1.75.173 2.348.52.597.346 1.133.926 1.607 1.74.803-.831 1.534-1.411 2.193-1.74.68-.347 1.463-.52 2.348-.52 1.277 0 2.287.338 3.028 1.013.762.658 1.143 1.542 1.144 2.65v6.52c0 .555.102.936.308 1.144.227.19.639.303 1.236.337v.624h-7.353V220c.597-.034.999-.156 1.205-.363.206-.208.309-.58.309-1.118v-6.286c0-.762-.134-1.307-.402-1.637-.247-.346-.659-.52-1.236-.52-.535 0-1.112.209-1.73.624-.597.399-.896.693-.896.884v6.936c0 .502.103.866.309 1.09.227.209.608.338 1.143.39v.624h-7.23V220c.577-.034.969-.155 1.175-.363.205-.208.308-.58.308-1.117v-6.287c0-.779-.133-1.333-.401-1.662-.247-.33-.67-.494-1.267-.494M139.833 214.26c.02.468.061.892.123 1.273.062.364.165.788.31 1.273.164.468.37.857.617 1.17.268.31.618.58 1.05.804.454.226.979.338 1.576.338.66 0 1.257-.13 1.792-.39.536-.26 1.113-.71 1.73-1.35l.742.363c-1.01 1.213-1.957 2.061-2.842 2.546-.866.468-1.926.702-3.183.702-1.915 0-3.46-.572-4.634-1.715-1.154-1.16-1.73-2.684-1.73-4.572 0-1.905.587-3.438 1.76-4.598 1.195-1.178 2.76-1.766 4.697-1.766 3.522 0 5.448 1.974 5.778 5.922h-7.786m3.985-1.35c-.02-.555-.04-.979-.061-1.273a6.6 6.6 0 0 0-.155-.987c-.082-.381-.195-.659-.34-.832a1.35 1.35 0 0 0-.556-.467c-.226-.139-.515-.208-.865-.208-.762 0-1.308.303-1.637.91-.31.605-.485 1.688-.526 3.246h4.14v-.39M156.763 210.078c-.577 0-1.164.208-1.761.623-.597.399-.896.693-.896.883v6.937c0 .484.103.84.309 1.065.227.207.628.346 1.205.415v.624h-7.446V220c.7-.12 1.143-.277 1.328-.467.206-.19.31-.554.31-1.091v-7.638c0-.537-.104-.9-.31-1.09-.206-.209-.648-.356-1.328-.442v-.624h5.901v1.948c1.133-1.506 2.606-2.26 4.419-2.26 1.277 0 2.286.338 3.028 1.013.762.659 1.143 1.542 1.143 2.65v6.52c0 .555.103.936.309 1.144.206.19.607.303 1.205.337v.624h-7.261V220c.515-.052.886-.19 1.112-.415.227-.225.34-.58.34-1.065v-6.287c0-1.437-.536-2.156-1.607-2.156M174.147 208.65v1.142h-2.904v7.82c0 .519.093.9.278 1.142.186.225.495.338.927.338.618 0 1.205-.45 1.761-1.35l.773.285c-.639 1.056-1.308 1.81-2.009 2.26-.68.433-1.534.65-2.564.65-1.071 0-1.916-.243-2.534-.728-.618-.485-.927-1.152-.927-2v-8.417h-1.606v-.701c1.01-.71 1.874-1.412 2.595-2.105.742-.692 1.586-1.602 2.534-2.727h.772v4.39h2.904"/>
	</g>
	<g  style="fill: #fff3;">
		<path d="M69.165 17.82v1.687l1.997.172.551.551v18.287l-.55.551-1.998.172v1.688h9.746V39.24l-2.067-.172-.55-.55v-8.68h9.952v8.68l-.516.55-2.067.172v1.688h9.712V39.24l-1.998-.172-.55-.55V20.23l.55-.55 1.998-.173V17.82h-9.712v1.687l2.067.172.516.551v7.542h-9.953V20.23l.551-.55 2.067-.173V17.82h-9.746M94.848 17.82v6.095h2.377l.55-3.685.552-.447h4.132v18.734l-.585.551-2.239.172v1.688h10.297V39.24l-2.238-.172-.585-.55V19.782h4.132l.517.447.585 3.685h2.377V17.82H94.849M115.944 40.929h7.817V39.24l-2.135-.24-.517-.62V20.196l6.992 20.732h2.48l7.162-20.904v18.493l-.344.551-2.135.172v1.688h9.54V39.24l-2.343-.172-.378-.551V20.162l.378-.482 2.342-.207V17.82h-9.126v1l-5.338 15.772-5.372-15.807v-.965h-9.023v1.654l2.273.206.413.448V38.38l-.482.62-2.204.241v1.687M146.413 40.929h17.39v-6.75h-2.548l-.516 4.201-.448.551h-6.612V20.162l.551-.482 2.1-.172v-1.687h-9.917v1.687l2.204.172.482.482v18.356l-.586.551-2.1.172v1.688"/>
	</g>
	<path d="M32.334 63.486v4.604l5.45.47 1.504 1.504v49.896l-1.504 1.504-5.45.47v4.604h26.593v-4.604l-5.638-.47-1.503-1.504V96.28h27.157v23.68l-1.41 1.504-5.638.47v4.604h26.5v-4.604l-5.45-.47-1.504-1.504V70.064l1.503-1.504 5.45-.47v-4.604H71.895v4.604l5.638.47 1.41 1.504v20.579H51.786v-20.58l1.503-1.503 5.638-.47v-4.604H32.334M102.62 91.446h70.208c.107 0 .192.004.192.01v11.17c0 .004-.085.008-.192.008H102.62c-.106 0-.191-.004-.191-.009v-11.17c0-.005.085-.009.191-.009zM102.62 108.903h70.208c.107 0 .192.004.192.01v11.17c0 .004-.085.008-.192.008H102.62c-.106 0-.191-.004-.191-.009v-11.17c0-.005.085-.009.191-.009zM137.076 73.466h35.844c.054 0 .098.004.098.009v11.17c0 .005-.044.009-.098.009h-35.844c-.054 0-.097-.004-.097-.01v-11.17c0-.004.043-.008.097-.008zM25.875 133.938h148.292c.224 0 .404.004.404.009v11.542c0 .005-.18.009-.404.009H25.875c-.224 0-.404-.004-.404-.01v-11.541c0-.005.18-.01.404-.01zM25.875 152.699h148.292c.224 0 .404.004.404.01v11.541c0 .005-.18.01-.404.01H25.875c-.224 0-.404-.005-.404-.01v-11.542c0-.005.18-.01.404-.01zM25.747 171.46h100.305c.152 0 .274.004.274.01v11.541c0 .006-.122.01-.274.01H25.747c-.152 0-.274-.005-.274-.01V171.47c0-.006.122-.01.274-.01z"  style="fill: #fff;"/>
	<g style="fill: #fff3;">
		<path d="M34.862 26.168l-12.32 5.502 12.32 5.471v2.728L19.558 32.9V30.41l15.304-6.97v2.728M39.482 18.895l6.208 25.23h-2.03l-6.207-25.23h2.029M48.304 26.168V23.44l15.304 6.97V32.9l-15.304 6.97v-2.728l12.295-5.471-12.295-5.502"/>
	</g>
	<g  style="fill: #fff;">
		<path d="M113.264 68.65v-3.332l-11.723 8.774v2.887l11.723 8.737v-3.295l-9.297-6.885 9.297-6.886M130.267 74.092l-11.723-8.774v3.332l9.297 6.886-9.297 6.885v3.295l11.723-8.737v-2.887"/>
	</g>
	<g  style="fill: #fff;">
		<path d="M143.438 172.297v-2.39l-12.161 6.294v2.072l12.16 6.268v-2.364l-9.643-4.94 9.644-4.94M146.039 167.332l8.84 20.29h1.586l-8.84-20.29h-1.586M171.444 176.201l-12.16-6.294v2.39l9.644 4.94-9.645 4.94v2.364l12.161-6.268V176.2"/>
	</g>
</g>
</svg>